<?xml version="1.0" encoding="utf-8"?>
<!-- Generator: Adobe Illustrator 21.1.0, SVG Export Plug-In . SVG Version: 6.00 Build 0)  -->
<svg version="1.1" id="Group_1_1_" xmlns="http://www.w3.org/2000/svg" xmlns:xlink="http://www.w3.org/1999/xlink" x="0px" y="0px"
	 viewBox="0 0 200 200" style="enable-background:new 0 0 200 200;" xml:space="preserve">
<style type="text/css">
	.st0{fill:#4AAED0;}
</style>
<g>
	<path class="st0" d="M172.9,183.5c-0.1-4.5-2.2-6.8-6.2-6.9c-4,0.1-6.1,2.4-6.1,6.9v3.7c0.1,4.6,2.1,6.9,6.1,6.9
		c4,0,6.1-2.3,6.2-6.9V183.5z"/>
	<path class="st0" d="M178,165h-5.6c-1-2.5-2.9-3.7-5.7-3.8c-4,0.1-6,2.4-6.1,6.9v4.2c3-1,5.8-1.4,8.3-1.4c2.9,0,5.3,1,7.3,3
		c2,2,2.9,5.2,2.9,9.5v4.1c-0.1,4.1-1.3,7.3-3.7,9.6c-1.1,1-2.3,1.8-3.6,2.4h18.8L178,165z"/>
	<polygon class="st0" points="132.6,190.9 132.6,199.5 145.4,199.5 137.5,185.2 	"/>
	<path class="st0" d="M154.3,187.6v-19.9c0-4.2,1.3-7.4,3.9-9.6c2.4-2.2,5.2-3.3,8.5-3.3c3,0,5.6,0.9,7.9,2.6c0.3,0.3,0.7,0.6,1,0.9
		L129.2,30.5l-32,88.2L77.4,85.2L10,199.5l101,0.5l0-0.5h15.3v-44.4h6.2v28h0.1l12-15h7.5l-10.7,12.5l11.8,18.9h8.5
		c-1.3-0.6-2.5-1.3-3.6-2.4C155.6,194.9,154.3,191.7,154.3,187.6z"/>
</g>
</svg>
