<svg xmlns="http://www.w3.org/2000/svg" width="287.289" height="272.169" viewBox="0 0 287.289 272.169">
    <defs>
        <filter id="Path_2895" x="15.69" y="12.759" width="26.042" height="26.137" filterUnits="userSpaceOnUse">
            <feOffset dy="3"/>
            <feGaussianBlur stdDeviation="3" result="blur"/>
            <feFlood flood-opacity=".161"/>
            <feComposite operator="in" in2="blur"/>
            <feComposite in="SourceGraphic"/>
        </filter>
        <style>
            .cls-1{fill:#5a5c87}.cls-5{fill:#7d64ff}
        </style>
    </defs>
    <g id="xk6_browser_logo_-_Colour" data-name="xk6 browser logo - Colour" transform="translate(-163 -176)">
        <g id="Group_3531" data-name="Group 3531" transform="translate(0 -51.5)">
            <g id="Group_3527" data-name="Group 3527" transform="translate(-531.679 -1785.77)">
                <path id="Path_2886" data-name="Path 2886" class="cls-1" d="M694.679 2131.535h8.421v116.62c0 9.189 5.052 14.3 14.154 14.3q121.023.007 242.045 0c9.157 0 14.231-5.073 14.231-14.229.006-38.331 0 13.338 0-24.993v5.423h8.426v-6.076c0 38.611.007-12.778 0 25.834 0 13.574-8.908 22.457-22.492 22.458q-120.882.007-241.766 0c-12.108 0-19.376-5.522-22.646-17.185a4.151 4.151 0 0 0-.38-.749z" transform="translate(0 -42.038)"/>
                <path id="Path_2887" data-name="Path 2887" class="cls-1" d="M694.679 2012.77h201.829v8.348H703.329v29.771h62.184v8.434h-62.247v19.757h-8.587z" transform="translate(0 .5)"/>
                <path id="Path_2888" data-name="Path 2888" class="cls-1" d="M996.693 2051.115v-29.785h-67.085V2013h75.43v163.866h-8.059v-117.244h-209.3v-8.507z" transform="translate(-23.286 .271)"/>
                <g transform="translate(694.68 2013.27)" style="filter:url(#Path_2895)">
                    <path id="Path_2895-2" data-name="Path 2895" d="M735.658 2046.6h-8.042v-8.137h8.042z" transform="translate(-702.93 -2019.7)" style="fill:#f52b82"/>
                </g>
                <path id="Path_2896" data-name="Path 2896" d="M758.143 2046.668h-7.968v-8.168h7.968z" transform="translate(-13.896 -6.443)" style="fill:#f3800a"/>
                <path id="Path_2897" data-name="Path 2897" d="M780.763 2038.452v8.04h-8.145v-8.04z" transform="translate(-19.516 -6.431)" style="fill:#86bc53"/>
            </g>
        </g>
        <path id="Path_2990" data-name="Path 2990" class="cls-5" d="M-.25 0H7.5l5.15-8h.2L18 0h7.75L17-12.5l8.25-12H17.5L12.85-17h-.2L8-24.5H.25l8.25 12zM29 0h6.75v-5.75L39-9.5 45.25 0H53l-9.5-14.25 9-10.25h-8l-8.75 10V-35H29zm28.75-20a16.838 16.838 0 0 0-1.5 2.45 14.172 14.172 0 0 0-1.5 6.05C54.75-4.75 60.25.75 68 .75s13.25-5.5 13.25-12.25-5.5-12.25-11.75-12.25a7.11 7.11 0 0 0-1.25.15l-.5.1 7.5-11.5H67.5zM68-6a5.249 5.249 0 0 1-5.5-5.5A5.249 5.249 0 0 1 68-17a5.249 5.249 0 0 1 5.5 5.5A5.249 5.249 0 0 1 68-6z" transform="translate(166 447.419)"/>
        <path id="Path_2989" data-name="Path 2989" class="cls-1" d="M3.5 0h6.75v-3.5h.25a8.965 8.965 0 0 0 1.9 2 9.471 9.471 0 0 0 5.85 2c5.8 0 11-5.25 11-12.75 0-7.45-5.2-12.75-11-12.75a9.471 9.471 0 0 0-5.85 2 8.965 8.965 0 0 0-1.9 2h-.25v-14H3.5zm12.75-5.75a6.25 6.25 0 0 1-6.25-6.5 6.25 6.25 0 0 1 6.25-6.5 6.25 6.25 0 0 1 6.25 6.5 6.25 6.25 0 0 1-6.25 6.5zm18 5.75H41v-11.5c0-4 2.5-6.5 5.75-6.5a11.79 11.79 0 0 1 1.7.15l.55.1V-25h-.5a8.336 8.336 0 0 0-5.4 2 11.712 11.712 0 0 0-1.85 2H41v-3.5h-6.75zm30-5.75a6.25 6.25 0 0 1-6.25-6.5 6.25 6.25 0 0 1 6.25-6.5 6.25 6.25 0 0 1 6.25 6.5 6.25 6.25 0 0 1-6.25 6.5zm-13-6.5A12.859 12.859 0 0 0 64.25.5a12.859 12.859 0 0 0 13-12.75 12.859 12.859 0 0 0-13-12.75 12.859 12.859 0 0 0-13 12.75zM87.35 0h6.15l4.65-14.25h.2L103 0h6.15l8.6-24.5h-7.25L106-10h-.25L101-24.5h-5.5L90.75-10h-.25L86-24.5h-7.25zm30.9-4a11.97 11.97 0 0 0 2.7 2.25 14.305 14.305 0 0 0 7.8 2.25C135.5.5 139-3.05 139-7.25c0-8-12.5-7.5-12.5-10.25 0-.75.75-1.5 2.5-1.5a8.025 8.025 0 0 1 4.05 1 8.2 8.2 0 0 1 1.45 1l4-4.25a11.694 11.694 0 0 0-2.4-1.85A13.69 13.69 0 0 0 129-25c-6.25 0-9.75 3.5-9.75 7.5 0 8 12.5 7.5 12.5 10.25 0 1-.75 1.75-3 1.75A8.63 8.63 0 0 1 124-6.85a7.98 7.98 0 0 1-1.75-1.4zM162-8.25a6.446 6.446 0 0 1-1.65 1.4 8.608 8.608 0 0 1-4.85 1.35c-3.75 0-5.75-2-6.5-4.25h17.75l.1-.85a19.563 19.563 0 0 0 .15-2.15A12.27 12.27 0 0 0 154.75-25 12.8 12.8 0 0 0 142-12.25 12.859 12.859 0 0 0 155 .5a15.853 15.853 0 0 0 7.8-2 12.624 12.624 0 0 0 2.7-2zm-13-6.5a5.874 5.874 0 0 1 5.5-4.25 5.874 5.874 0 0 1 5.5 4.25zM172 0h6.75v-11.5c0-4 2.5-6.5 5.75-6.5a11.79 11.79 0 0 1 1.7.15l.55.1V-25h-.5a8.336 8.336 0 0 0-5.4 2 11.711 11.711 0 0 0-1.85 2h-.25v-3.5H172z" transform="translate(260 447.419)"/>
        <g id="Group_3524" data-name="Group 3524" transform="translate(-248.718 -89.288)">
            <path id="Path_2877" data-name="Path 2877" class="cls-5" d="M469.792 341.591c.013.049 36.694-.2 36.709-.2 1.512.025 3.195 1.7 4.386 2.886q47.515 47.484 94.907 95.091a28.472 28.472 0 0 1 2.177 3.007H469.944l49.469-48.695-50.7-50.05c.363-.678 1.103-2.08 1.079-2.039z"/>
            <path id="Path_2878" data-name="Path 2878" class="cls-5" d="m593.832 341.8-38.351 39.176-18.656-18.948c6.432-6.209 13.2-12.746 20.958-20.229z" transform="translate(12.907 .044)"/>
            <path id="Path_2879" data-name="Path 2879" class="cls-5" d="m601.173 351.6 2.393 12.192-18.582 17.169.557 1.307 20.439-2.768c.488 3.53.877 6.352 1.324 9.6l-18.931 3.369-3.739 21.906-8.269-9.375 1.858-16.845-10.275 9.579-5.264-8.089c12.007-11.865 25.016-24.726 38.489-38.045z" transform="translate(17.807 1.901)"/>
            <path id="Path_2880" data-name="Path 2880" class="cls-5" d="m632.211 387 1.677 9.471-12.937 2.743c.682 2.635 1.514 5.024 1.9 7.484 1.45 9.3-4.376 17.865-13.15 19.552-9.978 1.919-19.1-3.739-21.353-13.249-2.186-9.208 2.907-18.7 12.121-20.737 10.17-2.251 20.573-3.459 31.742-5.264zm-34.183 21.93a8.1 8.1 0 0 0 7.389 7.778c3.836.1 7.882-3.592 7.676-7.427-.244-4.546-2.9-7.263-7.448-7.631a7.174 7.174 0 0 0-7.616 7.282z" transform="translate(22.575 8.609)"/>
        </g>
    </g>
</svg>
