<svg width="3035" height="486" viewBox="0 0 3035 486" fill="none" xmlns="http://www.w3.org/2000/svg">
<g clip-path="url(#clip0_8929_5662)">
<path d="M858.612 262.11C855.213 346.939 786.936 412.97 701.919 412.97C612.221 412.97 545.591 341.975 545.591 256.275C545.591 169.799 617.785 98.7104 705.731 98.7104C745.433 98.7104 784.313 115.474 817.216 145.531L791.618 176.411C766.432 155.095 736.105 140.519 705.778 140.519C641.312 140.519 588.423 192.315 588.423 256.228C588.423 321.024 638.372 371.161 702.013 371.161C759.22 371.161 804.076 330.211 813.028 277.556H683.262V240.383H858.707V262.11H858.612Z" fill="white"/>
<path d="M1007.68 241.759H983.744C957.322 241.759 935.912 262.71 935.912 288.532V410.535H893.222V201.644H928.184V219.196C939.771 207.891 958.052 201.644 978.603 201.644H1024.68L1007.68 241.759Z" fill="white"/>
<path d="M1240.3 410.5H1204V384.16C1175.96 411.005 1131.66 423.863 1086.82 404.618C1053.6 390.372 1028.82 360.68 1022.25 325.717C1009.57 258.158 1062.69 198.244 1130.52 198.244C1159.09 198.244 1184.79 209.549 1203.54 227.878V201.597H1240.25V410.5H1240.3ZM1196.6 321.071C1206.66 278.615 1173.8 240.006 1130.98 240.006C1093.79 240.006 1063.89 269.651 1063.89 305.625C1063.89 346.257 1100.37 377.725 1142.87 370.655C1169.07 366.244 1190.57 346.387 1196.6 321.071Z" fill="white"/>
<path d="M1326.41 189.963V201.691H1394.32V238.453H1326.41V410.535H1284.13V191.21C1284.13 145.26 1317.86 118.097 1360.09 118.097H1411.38L1394.24 157.389H1360.09C1341.34 157.389 1326.41 171.952 1326.41 189.963Z" fill="white"/>
<path d="M1620.55 410.5H1584.25V384.16C1556.21 411.005 1511.91 423.863 1467.07 404.618C1433.85 390.372 1409.07 360.68 1402.51 325.717C1389.83 258.158 1442.89 198.244 1510.77 198.244C1539.34 198.244 1565.04 209.549 1583.79 227.878V201.597H1620.5V410.5H1620.55ZM1576.89 321.071C1586.95 278.615 1554.1 240.006 1511.28 240.006C1474.15 240.006 1444.19 269.651 1444.19 305.625C1444.19 346.257 1480.71 377.725 1523.17 370.655C1549.37 366.244 1570.82 346.387 1576.89 321.071Z" fill="white"/>
<path d="M1848.7 286.838V410.5H1806.01V286.838C1806.01 260.969 1784.18 240.053 1758.17 240.053C1731.29 240.053 1709.92 260.969 1709.92 286.838V410.5H1667.24V201.597H1702.66V219.608C1718.06 206.185 1738.51 198.327 1759.88 198.327C1809.42 198.244 1848.7 237.947 1848.7 286.838Z" fill="white"/>
<path d="M2099.73 410.5H2063.48V384.16C2035.4 411.005 1991.11 423.863 1946.25 404.618C1913.03 390.372 1888.32 360.68 1881.74 325.717C1869.01 258.158 1922.14 198.244 1990 198.244C2018.59 198.244 2044.22 209.549 2062.97 227.878V201.597H2099.69V410.5H2099.73ZM2056.08 321.071C2066.2 278.615 2033.34 240.006 1990.46 240.006C1953.33 240.006 1923.42 269.651 1923.42 305.625C1923.42 346.257 1959.9 377.725 2002.37 370.655C2028.55 366.244 2050.07 346.387 2056.08 321.071Z" fill="white"/>
<path d="M2391.72 410.535H2230.7V99.5339H2273.62V368.079H2391.72V410.535Z" fill="white"/>
<path d="M2620.28 410.535H2583.8V384.066C2564.86 402.182 2538.68 413.946 2509.95 413.946C2448.57 413.946 2399.11 365.232 2399.11 305.084C2399.11 245.841 2448.47 197.044 2509.95 197.044C2538.72 197.044 2564.5 208.397 2583.34 226.913V200.444H2620.28V410.535ZM2578.19 305.037C2578.19 268.91 2548.09 239.041 2510.32 239.041C2472.96 239.041 2442.86 268.91 2442.86 305.037C2442.86 341.975 2472.96 371.432 2510.32 371.432C2548.13 371.432 2578.19 342.022 2578.19 305.037Z" fill="white"/>
<path d="M2877.47 305.542C2877.47 365.185 2827.66 413.982 2766.69 413.982C2737.87 413.982 2711.27 402.218 2692.38 384.113V410.582H2656.31V116.438H2698.82V222.313C2716.46 206.785 2740.49 197.138 2766.69 197.138C2827.66 197.138 2877.47 245.429 2877.47 305.542ZM2833.64 305.542C2833.64 268.957 2803.12 239.547 2766.22 239.547C2729.28 239.547 2698.77 268.957 2698.77 305.542C2698.77 341.657 2729.28 371.114 2766.22 371.114C2803.12 371.114 2833.64 341.704 2833.64 305.542Z" fill="white"/>
<path d="M3024.34 215.514L3005.4 246.217C2996.4 240.747 2980.96 232.336 2963.74 232.336C2947.47 232.336 2932.81 240.335 2932.81 253.382C2932.81 267.628 2949.52 273.145 2970.58 280.674C3004.94 292.437 3035 315.095 3035 349.563C3035 384.443 3004.48 413.899 2960.75 413.899C2934.14 413.899 2907.48 403.371 2889.47 392.43L2906.25 357.562C2918.69 364.726 2941.9 373.549 2959.5 373.549C2981 373.549 2990.47 360.915 2990.47 348.739C2990.47 334.446 2977.15 326.447 2947.51 315.095C2926 306.684 2891.21 292.861 2891.21 255.452C2891.21 220.572 2921.73 197.044 2962.49 197.044C2986.57 197.044 3006.28 204.997 3024.34 215.514Z" fill="white"/>
<path d="M456.492 214.42C455.751 206.232 454.328 196.809 451.528 186.434C448.763 176.093 444.634 164.741 438.705 152.883C432.682 141.213 424.824 128.944 414.672 117.133C410.72 112.498 406.355 107.945 401.673 103.44C408.649 76.2298 393.168 52.7021 393.168 52.7021C366.464 51.1022 349.466 60.8426 343.172 65.3482C342.113 64.8894 341.055 64.4306 339.996 64.0071C335.455 62.172 330.761 60.525 325.938 59.0545C321.162 57.5841 316.245 56.243 311.186 55.0078C306.175 53.8549 301.081 52.8903 295.882 52.1139C294.964 51.9256 294.047 51.8315 293.129 51.7374C281.507 15.2107 248.003 0 248.003 0C210.689 23.163 203.572 55.6077 203.572 55.6077C203.572 55.6077 203.43 56.3371 203.195 57.537C201.137 58.1252 199.113 58.6781 196.996 59.3251C194.149 60.1486 191.349 61.2073 188.455 62.172C185.644 63.2778 182.797 64.3365 179.95 65.5247C174.339 67.8774 168.739 70.5361 163.316 73.5241C158.034 76.465 152.835 79.6413 147.741 83.0881C147 82.8058 146.447 82.5352 146.447 82.5352C94.8041 63.2307 48.8901 86.4408 48.8901 86.4408C44.714 140.249 69.5238 174.117 74.441 180.269C73.2058 183.575 72.1 186.939 70.9942 190.339C67.1828 202.515 64.3359 215.008 62.5831 228.019C62.3126 229.807 62.0773 231.689 61.9008 233.571C14.1518 256.64 0 303.978 0 303.978C39.8438 348.822 86.2989 351.633 86.2989 351.633C86.3459 351.539 86.393 351.539 86.393 351.492C92.3219 361.785 99.1684 371.62 106.838 380.808C110.015 384.619 113.461 388.301 116.908 391.889C102.38 432.51 118.967 466.378 118.967 466.378C163.316 468.025 192.49 447.391 198.56 442.662C203.019 444.132 207.43 445.415 211.983 446.568C225.629 450.014 239.545 451.991 253.521 452.638C256.967 452.767 260.461 452.861 263.955 452.861H265.696L266.802 452.767L269.002 452.72L271.166 452.638L271.26 452.673C292.117 481.859 328.879 486 328.879 486C355.03 459.026 356.547 432.275 356.547 426.487C356.547 426.487 356.547 426.298 356.547 426.122C356.547 425.663 356.547 425.287 356.547 425.287C356.547 424.875 356.453 424.51 356.453 424.052C361.971 420.287 367.205 416.24 372.123 411.923C382.592 402.641 391.745 392.066 399.32 380.714C400.014 379.702 400.709 378.608 401.391 377.502C431.036 379.149 451.846 359.574 451.846 359.574C446.928 329.388 429.377 314.683 425.707 311.883C425.707 311.883 425.565 311.789 425.33 311.601C425.154 311.472 425.012 311.33 425.012 311.33C424.824 311.236 424.601 311.095 424.365 310.919C424.554 309.072 424.695 307.331 424.824 305.495C425.012 302.225 425.154 299.014 425.154 295.755V291.52C425.154 290.697 425.154 291.014 425.154 290.697L425.012 288.673L424.871 285.92C424.824 285.003 424.777 284.168 424.648 283.297C424.601 282.474 424.507 281.638 424.365 280.815L424.048 278.286L423.683 275.803C423.224 272.498 422.53 269.192 421.754 265.922C418.672 252.876 413.472 240.559 406.626 229.442C399.779 218.372 391.239 208.538 381.675 200.256C372.076 191.986 361.324 185.328 350.066 180.363C338.761 175.399 326.903 172.188 315.092 170.764C309.21 170.023 303.281 169.705 297.493 169.752L295.294 169.799H294.741C294.6 169.799 293.953 169.799 294 169.799L293.082 169.846L290.965 170.023C290.141 170.07 289.318 170.117 288.529 170.211C285.541 170.482 282.565 170.893 279.66 171.446C267.99 173.611 256.92 177.74 247.133 183.446C237.439 189.139 228.934 196.315 222.041 204.35C215.147 212.49 209.771 221.396 206.101 230.677C202.419 239.924 200.395 249.476 199.795 258.805C199.619 261.099 199.572 263.451 199.619 265.698C199.619 266.298 199.619 266.851 199.713 267.439L199.748 269.333C199.843 270.38 199.89 271.533 200.031 272.639C200.49 277.368 201.36 281.874 202.654 286.238C205.172 294.92 209.312 302.825 214.453 309.542C219.512 316.201 225.629 321.765 232.063 326.082C238.534 330.447 245.427 333.529 252.274 335.458C259.12 337.434 265.884 338.258 272.307 338.258C273.095 338.258 273.919 338.258 274.707 338.211C275.166 338.211 275.578 338.164 275.989 338.164C276.401 338.164 276.86 338.117 277.272 338.117C277.966 338.07 278.613 337.975 279.295 337.893C279.483 337.893 279.66 337.846 279.895 337.846L280.542 337.752C280.954 337.705 281.318 337.658 281.777 337.611C282.601 337.481 283.295 337.34 284.118 337.199C284.859 337.011 285.589 336.928 286.377 336.693C287.847 336.376 289.271 335.964 290.647 335.505C293.4 334.623 296.023 333.529 298.505 332.329C300.94 331.047 303.187 329.705 305.258 328.282C305.857 327.87 306.457 327.459 307.057 327C309.304 325.247 309.669 322.082 307.834 319.918C306.269 318.036 303.564 317.577 301.446 318.73C300.893 318.953 300.34 319.283 299.834 319.553C297.952 320.424 296.023 321.212 293.953 321.894C291.894 322.541 289.729 323.047 287.482 323.459C286.377 323.647 285.224 323.776 284.071 323.871C283.483 323.965 282.883 324.012 282.377 324.012C281.777 324.012 281.177 324.059 280.624 324.059C280.13 324.059 279.53 324.059 278.977 324.012C278.283 323.965 277.601 323.965 276.907 323.871C276.907 323.871 276.542 323.871 276.86 323.871H276.636L276.178 323.824C275.848 323.777 275.53 323.777 275.248 323.741C274.613 323.694 274.013 323.6 273.366 323.553C268.366 322.859 263.261 321.435 258.438 319.236C253.521 317.118 248.78 314.083 244.557 310.366C240.38 306.637 236.651 302.143 233.757 297.084C230.911 291.979 228.887 286.426 227.923 280.497C227.417 277.556 227.193 274.474 227.323 271.486C227.37 270.663 227.37 269.875 227.417 269.051C227.417 269.239 227.417 268.957 227.417 268.863V268.592L227.464 267.945C227.511 267.534 227.511 267.169 227.605 266.757C227.734 265.145 228.017 263.487 228.287 261.887C230.593 249.017 237.157 236.477 247.356 226.96C249.933 224.619 252.65 222.36 255.591 220.431C258.532 218.408 261.602 216.714 264.826 215.243C268.084 213.773 271.437 212.573 274.931 211.702C278.377 210.785 281.965 210.185 285.541 209.867C287.388 209.679 289.176 209.632 291.012 209.632C291.47 209.632 291.894 209.632 292.259 209.632L293.729 209.679L294.647 209.726C295.011 209.726 294.647 209.726 294.788 209.726H295.199L296.67 209.867C300.576 210.185 304.481 210.691 308.34 211.561C316.01 213.267 323.503 216.02 330.491 219.796C344.454 227.372 356.359 239.183 363.617 253.476C367.299 260.546 369.864 268.228 371.158 276.086C371.476 278.109 371.711 280.086 371.84 282.062L371.981 283.568L372.029 285.085C372.076 285.638 372.076 286.097 372.076 286.603C372.076 287.109 372.123 287.661 372.076 288.026V289.32L372.029 290.791C371.981 291.802 371.887 293.367 371.84 294.367C371.711 296.531 371.476 298.696 371.205 300.896C370.97 303.013 370.558 305.166 370.193 307.331C369.782 309.448 369.276 311.554 368.77 313.624C367.711 317.812 366.288 321.988 364.629 326.035C361.371 334.164 357.006 341.846 351.76 348.963C341.243 363.115 326.856 374.655 310.504 382.008C302.317 385.584 293.682 388.254 284.859 389.678C280.448 390.419 275.942 390.83 271.437 390.96L270.613 391.054H265.143C265.743 391.054 265.049 391.054 265.096 391.054H264.684C262.249 390.96 259.861 390.878 257.473 390.689C247.815 389.995 238.357 388.301 229.158 385.725C219.97 383.102 211.053 379.572 202.654 375.208C185.738 366.338 170.668 354.292 158.858 339.681C152.929 332.423 147.741 324.612 143.459 316.424C139.189 308.201 135.836 299.566 133.307 290.791C130.872 281.968 129.307 272.957 128.707 263.863L128.625 262.157L128.578 261.699V260.64L128.531 259.122V257.193L128.437 255.087V254.664C128.437 254.711 128.437 254.711 128.437 254.534V253.664C128.437 252.558 128.531 251.499 128.531 250.299C128.672 245.841 129.037 241.206 129.672 236.606C130.272 232.018 131.06 227.372 132.025 222.784C132.989 218.184 134.177 213.632 135.471 209.173C138.083 200.221 141.353 191.527 145.259 183.351C152.976 166.906 163.128 152.424 175.35 140.849C178.433 137.908 181.562 135.143 184.867 132.579C188.126 130.002 191.573 127.614 195.114 125.356C198.56 123.109 202.195 120.991 205.96 119.109C207.748 118.144 209.677 117.321 211.559 116.403C212.524 115.98 213.488 115.568 214.453 115.156C215.382 114.745 216.347 114.333 217.312 113.968C221.17 112.309 225.17 111.027 229.158 109.78C230.217 109.463 231.228 109.18 232.24 108.863C233.252 108.58 234.263 108.357 235.275 108.039C237.298 107.486 239.416 106.98 241.427 106.522C242.439 106.239 243.498 106.063 244.51 105.828C245.521 105.639 246.627 105.416 247.639 105.228C248.697 105.004 249.709 104.863 250.756 104.639L252.321 104.357L253.885 104.169C254.944 104.04 255.956 103.851 257.014 103.71C258.203 103.487 259.355 103.44 260.543 103.204C261.508 103.122 263.12 102.934 264.084 102.793C264.826 102.745 265.555 102.663 266.343 102.616L267.813 102.428L268.543 102.381L269.413 102.334C270.613 102.287 271.766 102.204 273.001 102.157L274.742 102.016C274.742 102.016 275.389 102.016 274.883 102.016H275.248L275.989 101.969C277.001 101.922 278.013 101.875 279.024 101.828C283.071 101.699 287.059 101.699 291.059 101.828C299.011 102.157 306.822 102.981 314.41 104.357C329.573 107.157 343.854 111.898 356.771 118.191C369.735 124.344 381.31 131.979 391.38 140.249C392.015 140.802 392.568 141.307 393.215 141.813C393.815 142.366 394.45 142.872 395.05 143.378C396.297 144.425 397.438 145.531 398.638 146.589C399.779 147.648 400.932 148.707 402.038 149.801C403.179 150.907 404.285 152.012 405.296 153.118C409.567 157.577 413.519 162.024 417.06 166.482C424.236 175.493 429.93 184.587 434.482 193.186C434.753 193.692 435.07 194.245 435.353 194.798C435.623 195.303 435.859 195.845 436.129 196.398C436.682 197.456 437.188 198.515 437.694 199.527C438.153 200.585 438.706 201.644 439.117 202.656C439.623 203.668 440.035 204.667 440.447 205.679C442.199 209.679 443.717 213.49 444.952 217.125C447.022 222.913 448.587 228.195 449.775 232.795C450.234 234.63 452.034 235.83 453.916 235.689C455.892 235.512 457.457 233.901 457.504 231.971C457.175 226.725 457.08 220.984 456.492 214.42Z" fill="white"/>
</g>
<defs>
<clipPath id="clip0_8929_5662">
<rect width="3035" height="486" fill="white"/>
</clipPath>
</defs>
</svg>
