<?xml version="1.0" encoding="utf-8"?>
<svg viewBox="0.002 0 257.996 41.313" xmlns="http://www.w3.org/2000/svg">
  <path style="stroke: none; fill-rule: nonzero; fill-opacity: 1;" d="M 72.99 22.281 C 72.701 29.492 66.897 35.105 59.67 35.105 C 52.045 35.105 46.381 29.07 46.381 21.785 C 46.381 14.434 52.518 8.391 59.994 8.391 C 63.369 8.391 66.674 9.816 69.471 12.371 L 67.295 14.996 C 65.154 13.184 62.576 11.945 59.998 11.945 C 54.518 11.945 50.022 16.348 50.022 21.781 C 50.022 27.289 54.268 31.551 59.678 31.551 C 64.541 31.551 68.354 28.07 69.115 23.594 L 58.084 23.594 L 58.084 20.434 L 72.998 20.434 L 72.998 22.281 L 72.99 22.281 Z M 72.99 22.281" transform="matrix(1, 0, 0, 1, 7.105427357601002e-15, 1.7763568394002505e-15)"/>
  <path style="stroke: none; fill-rule: nonzero; fill-opacity: 1; fill: rgb(26, 25, 31);" d="M 85.662 20.551 L 83.627 20.551 C 81.381 20.551 79.561 22.332 79.561 24.527 L 79.561 34.898 L 75.932 34.898 L 75.932 17.141 L 78.904 17.141 L 78.904 18.633 C 79.889 17.672 81.443 17.141 83.19 17.141 L 87.107 17.141 L 85.662 20.551 Z M 85.662 20.551" transform="matrix(1, 0, 0, 1, 7.105427357601002e-15, 1.7763568394002505e-15)"/>
  <path style="stroke: none; fill-rule: nonzero; fill-opacity: 1; fill: rgb(26, 25, 31);" d="M 105.436 34.895 L 102.35 34.895 L 102.35 32.656 C 99.967 34.938 96.201 36.031 92.389 34.395 C 89.565 33.184 87.459 30.66 86.9 27.688 C 85.822 21.945 90.338 16.852 96.104 16.852 C 98.533 16.852 100.717 17.813 102.311 19.371 L 102.311 17.137 L 105.432 17.137 L 105.432 34.895 L 105.436 34.895 Z M 101.721 27.293 C 102.576 23.684 99.783 20.402 96.143 20.402 C 92.982 20.402 90.44 22.922 90.44 25.98 C 90.44 29.434 93.541 32.109 97.154 31.508 C 99.381 31.133 101.209 29.445 101.721 27.293 Z M 101.721 27.293" transform="matrix(1, 0, 0, 1, 7.105427357601002e-15, 1.7763568394002505e-15)"/>
  <path style="stroke: none; fill-rule: nonzero; fill-opacity: 1; fill: rgb(26, 25, 31);" d="M 112.756 16.148 L 112.756 17.145 L 118.529 17.145 L 118.529 20.27 L 112.756 20.27 L 112.756 34.898 L 109.162 34.898 L 109.162 16.254 C 109.162 12.348 112.029 10.039 115.619 10.039 L 119.979 10.039 L 118.522 13.379 L 115.619 13.379 C 114.025 13.379 112.756 14.617 112.756 16.148 Z M 112.756 16.148" transform="matrix(1, 0, 0, 1, 7.105427357601002e-15, 1.7763568394002505e-15)"/>
  <path style="stroke: none; fill-rule: nonzero; fill-opacity: 1; fill: rgb(26, 25, 31);" d="M 137.76 34.895 L 134.674 34.895 L 134.674 32.656 C 132.291 34.938 128.525 36.031 124.713 34.395 C 121.889 33.184 119.783 30.66 119.225 27.688 C 118.147 21.945 122.658 16.852 128.428 16.852 C 130.857 16.852 133.041 17.813 134.635 19.371 L 134.635 17.137 L 137.756 17.137 L 137.756 34.895 L 137.76 34.895 Z M 134.049 27.293 C 134.904 23.684 132.111 20.402 128.471 20.402 C 125.315 20.402 122.768 22.922 122.768 25.98 C 122.768 29.434 125.873 32.109 129.482 31.508 C 131.709 31.133 133.533 29.445 134.049 27.293 Z M 134.049 27.293" transform="matrix(1, 0, 0, 1, 7.105427357601002e-15, 1.7763568394002505e-15)"/>
  <path style="stroke: none; fill-rule: nonzero; fill-opacity: 1; fill: rgb(26, 25, 31);" d="M 157.154 24.383 L 157.154 34.895 L 153.525 34.895 L 153.525 24.383 C 153.525 22.184 151.67 20.406 149.459 20.406 C 147.174 20.406 145.357 22.184 145.357 24.383 L 145.357 34.895 L 141.729 34.895 L 141.729 17.137 L 144.74 17.137 L 144.74 18.668 C 146.049 17.527 147.787 16.859 149.604 16.859 C 153.815 16.852 157.154 20.227 157.154 24.383 Z M 157.154 24.383" transform="matrix(1, 0, 0, 1, 7.105427357601002e-15, 1.7763568394002505e-15)"/>
  <path style="stroke: none; fill-rule: nonzero; fill-opacity: 1; fill: rgb(26, 25, 31);" d="M 178.494 34.895 L 175.412 34.895 L 175.412 32.656 C 173.025 34.938 169.26 36.031 165.447 34.395 C 162.623 33.184 160.522 30.66 159.963 27.688 C 158.881 21.945 163.397 16.852 169.166 16.852 C 171.596 16.852 173.775 17.813 175.369 19.371 L 175.369 17.137 L 178.49 17.137 L 178.49 34.895 L 178.494 34.895 Z M 174.783 27.293 C 175.643 23.684 172.85 20.402 169.205 20.402 C 166.049 20.402 163.506 22.922 163.506 25.98 C 163.506 29.434 166.607 32.109 170.217 31.508 C 172.443 31.133 174.272 29.445 174.783 27.293 Z M 174.783 27.293" transform="matrix(1, 0, 0, 1, 7.105427357601002e-15, 1.7763568394002505e-15)"/>
  <path style="stroke: none; fill-rule: nonzero; fill-opacity: 1; fill: rgb(26, 25, 31);" d="M 203.315 34.898 L 189.627 34.898 L 189.627 8.461 L 193.275 8.461 L 193.275 31.289 L 203.315 31.289 L 203.315 34.898 Z M 203.315 34.898" transform="matrix(1, 0, 0, 1, 7.105427357601002e-15, 1.7763568394002505e-15)"/>
  <path style="stroke: none; fill-rule: nonzero; fill-opacity: 1; fill: rgb(26, 25, 31);" d="M 222.744 34.898 L 219.643 34.898 L 219.643 32.648 C 218.033 34.188 215.807 35.188 213.365 35.188 C 208.147 35.188 203.943 31.047 203.943 25.934 C 203.943 20.898 208.139 16.75 213.365 16.75 C 215.811 16.75 218.002 17.715 219.604 19.289 L 219.604 17.039 L 222.744 17.039 L 222.744 34.898 Z M 219.166 25.93 C 219.166 22.859 216.607 20.32 213.397 20.32 C 210.221 20.32 207.662 22.859 207.662 25.93 C 207.662 29.07 210.221 31.574 213.397 31.574 C 216.611 31.574 219.166 29.074 219.166 25.93 Z M 219.166 25.93" transform="matrix(1, 0, 0, 1, 7.105427357601002e-15, 1.7763568394002505e-15)"/>
  <path style="stroke: none; fill-rule: nonzero; fill-opacity: 1; fill: rgb(26, 25, 31);" d="M 244.607 25.973 C 244.607 31.043 240.373 35.191 235.19 35.191 C 232.74 35.191 230.479 34.191 228.873 32.652 L 228.873 34.902 L 225.807 34.902 L 225.807 9.898 L 229.42 9.898 L 229.42 18.898 C 230.92 17.578 232.963 16.758 235.19 16.758 C 240.373 16.758 244.607 20.863 244.607 25.973 Z M 240.881 25.973 C 240.881 22.863 238.287 20.363 235.15 20.363 C 232.01 20.363 229.416 22.863 229.416 25.973 C 229.416 29.043 232.01 31.547 235.15 31.547 C 238.287 31.547 240.881 29.047 240.881 25.973 Z M 240.881 25.973" transform="matrix(1, 0, 0, 1, 7.105427357601002e-15, 1.7763568394002505e-15)"/>
  <path style="stroke: none; fill-rule: nonzero; fill-opacity: 1; fill: rgb(26, 25, 31);" d="M 257.092 18.32 L 255.482 20.93 C 254.717 20.465 253.404 19.75 251.94 19.75 C 250.557 19.75 249.311 20.43 249.311 21.539 C 249.311 22.75 250.732 23.219 252.522 23.859 C 255.443 24.859 257.998 26.785 257.998 29.715 C 257.998 32.68 255.404 35.184 251.686 35.184 C 249.424 35.184 247.158 34.289 245.627 33.359 L 247.053 30.395 C 248.111 31.004 250.084 31.754 251.58 31.754 C 253.408 31.754 254.213 30.68 254.213 29.645 C 254.213 28.43 253.08 27.75 250.561 26.785 C 248.732 26.07 245.775 24.895 245.775 21.715 C 245.775 18.75 248.369 16.75 251.834 16.75 C 253.881 16.75 255.557 17.426 257.092 18.32 Z M 257.092 18.32" transform="matrix(1, 0, 0, 1, 7.105427357601002e-15, 1.7763568394002505e-15)"/>
  <path style="stroke: none; fill-rule: nonzero; fill-opacity: 1; fill: rgb(26, 25, 31);" d="M 38.807 18.227 C 38.744 17.531 38.623 16.73 38.385 15.848 C 38.15 14.969 37.799 14.004 37.295 12.996 C 36.783 12.004 36.115 10.961 35.252 9.957 C 34.916 9.563 34.545 9.176 34.147 8.793 C 34.74 6.48 33.424 4.48 33.424 4.48 C 31.154 4.344 29.709 5.172 29.174 5.555 C 29.084 5.516 28.994 5.477 28.904 5.441 C 28.518 5.285 28.119 5.145 27.709 5.02 C 27.303 4.895 26.885 4.781 26.455 4.676 C 26.029 4.578 25.596 4.496 25.154 4.43 C 25.076 4.414 24.998 4.406 24.92 4.398 C 23.932 1.293 21.084 0 21.084 0 C 17.912 1.969 17.307 4.727 17.307 4.727 C 17.307 4.727 17.295 4.789 17.275 4.891 C 17.1 4.941 16.928 4.988 16.748 5.043 C 16.506 5.113 16.268 5.203 16.022 5.285 C 15.783 5.379 15.541 5.469 15.299 5.57 C 14.822 5.77 14.346 5.996 13.885 6.25 C 13.436 6.5 12.994 6.77 12.561 7.063 C 12.498 7.039 12.451 7.016 12.451 7.016 C 8.061 5.375 4.158 7.348 4.158 7.348 C 3.803 11.922 5.912 14.801 6.33 15.324 C 6.225 15.605 6.131 15.891 6.037 16.18 C 5.713 17.215 5.471 18.277 5.322 19.383 C 5.299 19.535 5.279 19.695 5.264 19.855 C 1.205 21.816 0.002 25.84 0.002 25.84 C 3.389 29.652 7.338 29.891 7.338 29.891 C 7.342 29.883 7.346 29.883 7.346 29.879 C 7.85 30.754 8.432 31.59 9.084 32.371 C 9.354 32.695 9.647 33.008 9.94 33.313 C 8.705 36.766 10.115 39.645 10.115 39.645 C 13.885 39.785 16.365 38.031 16.881 37.629 C 17.26 37.754 17.635 37.863 18.022 37.961 C 19.182 38.254 20.365 38.422 21.553 38.477 C 21.846 38.488 22.143 38.496 22.44 38.496 L 22.588 38.496 L 22.682 38.488 L 22.869 38.484 L 23.053 38.477 L 23.061 38.48 C 24.834 40.961 27.959 41.313 27.959 41.313 C 30.182 39.02 30.311 36.746 30.311 36.254 C 30.311 36.254 30.311 36.238 30.311 36.223 C 30.311 36.184 30.311 36.152 30.311 36.152 C 30.311 36.117 30.303 36.086 30.303 36.047 C 30.772 35.727 31.217 35.383 31.635 35.016 C 32.525 34.227 33.303 33.328 33.947 32.363 C 34.006 32.277 34.065 32.184 34.123 32.09 C 36.643 32.23 38.412 30.566 38.412 30.566 C 37.994 28 36.502 26.75 36.19 26.512 C 36.19 26.512 36.178 26.504 36.158 26.488 C 36.143 26.477 36.131 26.465 36.131 26.465 C 36.115 26.457 36.096 26.445 36.076 26.43 C 36.092 26.273 36.104 26.125 36.115 25.969 C 36.131 25.691 36.143 25.418 36.143 25.141 L 36.143 24.781 C 36.143 24.711 36.143 24.738 36.143 24.711 L 36.131 24.539 L 36.119 24.305 C 36.115 24.227 36.111 24.156 36.1 24.082 C 36.096 24.012 36.088 23.941 36.076 23.871 L 36.049 23.656 L 36.018 23.445 C 35.979 23.164 35.92 22.883 35.854 22.605 C 35.592 21.496 35.15 20.449 34.568 19.504 C 33.986 18.563 33.26 17.727 32.447 17.023 C 31.631 16.32 30.717 15.754 29.76 15.332 C 28.799 14.91 27.791 14.637 26.787 14.516 C 26.287 14.453 25.783 14.426 25.291 14.43 L 25.104 14.434 L 25.057 14.434 C 25.045 14.434 24.99 14.434 24.994 14.434 L 24.916 14.438 L 24.736 14.453 C 24.666 14.457 24.596 14.461 24.529 14.469 C 24.275 14.492 24.022 14.527 23.775 14.574 C 22.783 14.758 21.842 15.109 21.01 15.594 C 20.186 16.078 19.463 16.688 18.877 17.371 C 18.291 18.063 17.834 18.82 17.522 19.609 C 17.209 20.395 17.037 21.207 16.986 22 C 16.971 22.195 16.967 22.395 16.971 22.586 C 16.971 22.637 16.971 22.684 16.979 22.734 L 16.982 22.895 C 16.99 22.984 16.994 23.082 17.006 23.176 C 17.045 23.578 17.119 23.961 17.229 24.332 C 17.443 25.07 17.795 25.742 18.232 26.313 C 18.662 26.879 19.182 27.352 19.729 27.719 C 20.279 28.09 20.865 28.352 21.447 28.516 C 22.029 28.684 22.604 28.754 23.15 28.754 C 23.217 28.754 23.287 28.754 23.354 28.75 C 23.393 28.75 23.428 28.746 23.463 28.746 C 23.498 28.746 23.537 28.742 23.572 28.742 C 23.631 28.738 23.686 28.73 23.744 28.723 C 23.76 28.723 23.775 28.719 23.795 28.719 L 23.85 28.711 C 23.885 28.707 23.916 28.703 23.955 28.699 C 24.025 28.688 24.084 28.676 24.154 28.664 C 24.217 28.648 24.279 28.641 24.346 28.621 C 24.471 28.594 24.592 28.559 24.709 28.52 C 24.943 28.445 25.166 28.352 25.377 28.25 C 25.584 28.141 25.775 28.027 25.951 27.906 C 26.002 27.871 26.053 27.836 26.104 27.797 C 26.295 27.648 26.326 27.379 26.17 27.195 C 26.037 27.035 25.807 26.996 25.627 27.094 C 25.58 27.113 25.533 27.141 25.49 27.164 C 25.33 27.238 25.166 27.305 24.99 27.363 C 24.815 27.418 24.631 27.461 24.44 27.496 C 24.346 27.512 24.248 27.523 24.15 27.531 C 24.1 27.539 24.049 27.543 24.006 27.543 C 23.955 27.543 23.904 27.547 23.857 27.547 C 23.815 27.547 23.764 27.547 23.717 27.543 C 23.658 27.539 23.6 27.539 23.541 27.531 C 23.541 27.531 23.51 27.531 23.537 27.531 L 23.518 27.531 L 23.479 27.527 C 23.451 27.523 23.424 27.523 23.4 27.52 C 23.346 27.516 23.295 27.508 23.24 27.504 C 22.815 27.445 22.381 27.324 21.971 27.137 C 21.553 26.957 21.15 26.699 20.791 26.383 C 20.436 26.066 20.119 25.684 19.873 25.254 C 19.631 24.82 19.459 24.348 19.377 23.844 C 19.334 23.594 19.315 23.332 19.326 23.078 C 19.33 23.008 19.33 22.941 19.334 22.871 C 19.334 22.887 19.334 22.863 19.334 22.855 L 19.334 22.832 L 19.338 22.777 C 19.342 22.742 19.342 22.711 19.35 22.676 C 19.361 22.539 19.385 22.398 19.408 22.262 C 19.604 21.168 20.162 20.102 21.029 19.293 C 21.248 19.094 21.479 18.902 21.729 18.738 C 21.979 18.566 22.24 18.422 22.514 18.297 C 22.791 18.172 23.076 18.07 23.373 17.996 C 23.666 17.918 23.971 17.867 24.275 17.84 C 24.432 17.824 24.584 17.82 24.74 17.82 C 24.779 17.82 24.815 17.82 24.846 17.82 L 24.971 17.824 L 25.049 17.828 C 25.08 17.828 25.049 17.828 25.061 17.828 L 25.096 17.828 L 25.221 17.84 C 25.553 17.867 25.885 17.91 26.213 17.984 C 26.865 18.129 27.502 18.363 28.096 18.684 C 29.283 19.328 30.295 20.332 30.912 21.547 C 31.225 22.148 31.443 22.801 31.553 23.469 C 31.58 23.641 31.6 23.809 31.611 23.977 L 31.623 24.105 L 31.627 24.234 C 31.631 24.281 31.631 24.32 31.631 24.363 C 31.631 24.406 31.635 24.453 31.631 24.484 L 31.631 24.594 L 31.627 24.719 C 31.623 24.805 31.615 24.938 31.611 25.023 C 31.6 25.207 31.58 25.391 31.557 25.578 C 31.537 25.758 31.502 25.941 31.471 26.125 C 31.436 26.305 31.393 26.484 31.35 26.66 C 31.26 27.016 31.139 27.371 30.998 27.715 C 30.721 28.406 30.35 29.059 29.904 29.664 C 29.01 30.867 27.787 31.848 26.397 32.473 C 25.701 32.777 24.967 33.004 24.217 33.125 C 23.842 33.188 23.459 33.223 23.076 33.234 L 23.006 33.242 L 22.541 33.242 C 22.592 33.242 22.533 33.242 22.537 33.242 L 22.502 33.242 C 22.295 33.234 22.092 33.227 21.889 33.211 C 21.068 33.152 20.264 33.008 19.482 32.789 C 18.701 32.566 17.943 32.266 17.229 31.895 C 15.791 31.141 14.51 30.117 13.506 28.875 C 13.002 28.258 12.561 27.594 12.197 26.898 C 11.834 26.199 11.549 25.465 11.334 24.719 C 11.127 23.969 10.994 23.203 10.943 22.43 L 10.936 22.285 L 10.932 22.246 L 10.932 22.156 L 10.928 22.027 L 10.928 21.863 L 10.92 21.684 L 10.92 21.648 C 10.92 21.652 10.92 21.652 10.92 21.637 L 10.92 21.563 C 10.92 21.469 10.928 21.379 10.928 21.277 C 10.94 20.898 10.971 20.504 11.025 20.113 C 11.076 19.723 11.143 19.328 11.225 18.938 C 11.307 18.547 11.408 18.16 11.518 17.781 C 11.74 17.02 12.018 16.281 12.35 15.586 C 13.006 14.188 13.869 12.957 14.908 11.973 C 15.17 11.723 15.436 11.488 15.717 11.27 C 15.994 11.051 16.287 10.848 16.588 10.656 C 16.881 10.465 17.19 10.285 17.51 10.125 C 17.662 10.043 17.826 9.973 17.986 9.895 C 18.068 9.859 18.15 9.824 18.232 9.789 C 18.311 9.754 18.393 9.719 18.475 9.688 C 18.803 9.547 19.143 9.438 19.482 9.332 C 19.572 9.305 19.658 9.281 19.744 9.254 C 19.83 9.23 19.916 9.211 20.002 9.184 C 20.174 9.137 20.354 9.094 20.525 9.055 C 20.611 9.031 20.701 9.016 20.787 8.996 C 20.873 8.98 20.967 8.961 21.053 8.945 C 21.143 8.926 21.229 8.914 21.318 8.895 L 21.451 8.871 L 21.584 8.855 C 21.674 8.844 21.76 8.828 21.85 8.816 C 21.951 8.797 22.049 8.793 22.15 8.773 C 22.232 8.766 22.369 8.75 22.451 8.738 C 22.514 8.734 22.576 8.727 22.643 8.723 L 22.768 8.707 L 22.83 8.703 L 22.904 8.699 C 23.006 8.695 23.104 8.688 23.209 8.684 L 23.357 8.672 C 23.357 8.672 23.412 8.672 23.369 8.672 L 23.4 8.672 L 23.463 8.668 C 23.549 8.664 23.635 8.66 23.721 8.656 C 24.065 8.645 24.404 8.645 24.744 8.656 C 25.42 8.684 26.084 8.754 26.729 8.871 C 28.018 9.109 29.232 9.512 30.33 10.047 C 31.432 10.57 32.416 11.219 33.272 11.922 C 33.326 11.969 33.373 12.012 33.428 12.055 C 33.479 12.102 33.533 12.145 33.584 12.188 C 33.69 12.277 33.787 12.371 33.889 12.461 C 33.986 12.551 34.084 12.641 34.178 12.734 C 34.275 12.828 34.369 12.922 34.455 13.016 C 34.818 13.395 35.154 13.773 35.455 14.152 C 36.065 14.918 36.549 15.691 36.936 16.422 C 36.959 16.465 36.986 16.512 37.01 16.559 C 37.033 16.602 37.053 16.648 37.076 16.695 C 37.123 16.785 37.166 16.875 37.209 16.961 C 37.248 17.051 37.295 17.141 37.33 17.227 C 37.373 17.313 37.408 17.398 37.443 17.484 C 37.592 17.824 37.721 18.148 37.826 18.457 C 38.002 18.949 38.135 19.398 38.236 19.789 C 38.275 19.945 38.428 20.047 38.588 20.035 C 38.756 20.02 38.889 19.883 38.893 19.719 C 38.865 19.273 38.857 18.785 38.807 18.227 Z M 38.807 18.227" transform="matrix(1, 0, 0, 1, 7.105427357601002e-15, 1.7763568394002505e-15)"/>
</svg>
