<?xml version="1.0" encoding="UTF-8"?>
<svg xmlns="http://www.w3.org/2000/svg" xmlns:xlink="http://www.w3.org/1999/xlink" width="258px" height="210px" viewBox="0 0 258 210" version="1.1">
<g id="surface1">
<path style=" stroke:none;fill-rule:evenodd;fill:rgb(49.019608%,39.215686%,100%);fill-opacity:1;" d="M 134.6875 58.121094 L 177.417969 0 L 213.28125 154.917969 L 41.28125 154.917969 L 98.828125 32.050781 Z M 112.460938 113.945312 L 122.683594 127.960938 L 122.683594 127.957031 L 133.648438 127.957031 L 121.660156 111.515625 L 132.222656 97.023438 L 125.046875 91.824219 L 112.460938 109.089844 L 112.460938 82.714844 L 103 75.871094 L 103 127.960938 L 112.460938 127.960938 Z M 135.144531 112.5 C 135.144531 121.359375 142.351562 128.546875 151.25 128.546875 C 160.144531 128.546875 167.351562 121.359375 167.351562 112.503906 C 167.351562 104.523438 161.511719 97.90625 153.855469 96.667969 L 161.554688 86.101562 L 154.378906 80.902344 L 138.230469 103.054688 C 136.289062 105.707031 135.144531 108.96875 135.144531 112.5 Z M 158.167969 112.496094 C 158.167969 116.304688 155.070312 119.394531 151.25 119.394531 C 147.425781 119.394531 144.328125 116.304688 144.328125 112.496094 C 144.328125 108.6875 147.425781 105.601562 151.25 105.601562 C 155.070312 105.601562 158.167969 108.6875 158.167969 112.496094 Z M 158.167969 112.496094 "/>
<path style=" stroke:none;fill-rule:nonzero;fill:rgb(35.294118%,36.078431%,52.941176%);fill-opacity:1;" d="M 72.988281 190.96875 C 72.699219 198.179688 66.894531 203.792969 59.667969 203.792969 C 52.042969 203.792969 46.378906 197.757812 46.378906 190.472656 C 46.378906 183.121094 52.515625 177.078125 59.992188 177.078125 C 63.367188 177.078125 66.671875 178.503906 69.46875 181.058594 L 67.292969 183.683594 C 65.152344 181.871094 62.574219 180.632812 59.996094 180.632812 C 54.515625 180.632812 50.019531 185.035156 50.019531 190.46875 C 50.019531 195.976562 54.265625 200.238281 59.675781 200.238281 C 64.539062 200.238281 68.351562 196.757812 69.113281 192.28125 L 58.082031 192.28125 L 58.082031 189.121094 L 72.996094 189.121094 L 72.996094 190.96875 Z M 72.988281 190.96875 "/>
<path style=" stroke:none;fill-rule:nonzero;fill:rgb(35.294118%,36.078431%,52.941176%);fill-opacity:1;" d="M 85.660156 189.238281 L 83.625 189.238281 C 81.378906 189.238281 79.558594 191.019531 79.558594 193.214844 L 79.558594 203.585938 L 75.929688 203.585938 L 75.929688 185.828125 L 78.902344 185.828125 L 78.902344 187.320312 C 79.886719 186.359375 81.441406 185.828125 83.1875 185.828125 L 87.105469 185.828125 Z M 85.660156 189.238281 "/>
<path style=" stroke:none;fill-rule:nonzero;fill:rgb(35.294118%,36.078431%,52.941176%);fill-opacity:1;" d="M 105.433594 203.582031 L 102.347656 203.582031 L 102.347656 201.34375 C 99.964844 203.625 96.199219 204.71875 92.386719 203.082031 C 89.5625 201.871094 87.457031 199.347656 86.898438 196.375 C 85.820312 190.632812 90.335938 185.539062 96.101562 185.539062 C 98.53125 185.539062 100.714844 186.5 102.308594 188.058594 L 102.308594 185.824219 L 105.429688 185.824219 L 105.429688 203.582031 Z M 101.71875 195.980469 C 102.574219 192.371094 99.78125 189.089844 96.140625 189.089844 C 92.980469 189.089844 90.4375 191.609375 90.4375 194.667969 C 90.4375 198.121094 93.539062 200.796875 97.152344 200.195312 C 99.378906 199.820312 101.207031 198.132812 101.71875 195.980469 Z M 101.71875 195.980469 "/>
<path style=" stroke:none;fill-rule:nonzero;fill:rgb(35.294118%,36.078431%,52.941176%);fill-opacity:1;" d="M 112.753906 184.835938 L 112.753906 185.832031 L 118.527344 185.832031 L 118.527344 188.957031 L 112.753906 188.957031 L 112.753906 203.585938 L 109.160156 203.585938 L 109.160156 184.941406 C 109.160156 181.035156 112.027344 178.726562 115.617188 178.726562 L 119.976562 178.726562 L 118.519531 182.066406 L 115.617188 182.066406 C 114.023438 182.066406 112.753906 183.304688 112.753906 184.835938 Z M 112.753906 184.835938 "/>
<path style=" stroke:none;fill-rule:nonzero;fill:rgb(35.294118%,36.078431%,52.941176%);fill-opacity:1;" d="M 137.757812 203.582031 L 134.671875 203.582031 L 134.671875 201.34375 C 132.289062 203.625 128.523438 204.71875 124.710938 203.082031 C 121.886719 201.871094 119.78125 199.347656 119.222656 196.375 C 118.144531 190.632812 122.65625 185.539062 128.425781 185.539062 C 130.855469 185.539062 133.039062 186.5 134.632812 188.058594 L 134.632812 185.824219 L 137.753906 185.824219 L 137.753906 203.582031 Z M 134.046875 195.980469 C 134.902344 192.371094 132.109375 189.089844 128.46875 189.089844 C 125.3125 189.089844 122.765625 191.609375 122.765625 194.667969 C 122.765625 198.121094 125.871094 200.796875 129.480469 200.195312 C 131.707031 199.820312 133.53125 198.132812 134.046875 195.980469 Z M 134.046875 195.980469 "/>
<path style=" stroke:none;fill-rule:nonzero;fill:rgb(35.294118%,36.078431%,52.941176%);fill-opacity:1;" d="M 157.152344 193.070312 L 157.152344 203.582031 L 153.523438 203.582031 L 153.523438 193.070312 C 153.523438 190.871094 151.667969 189.09375 149.457031 189.09375 C 147.171875 189.09375 145.355469 190.871094 145.355469 193.070312 L 145.355469 203.582031 L 141.726562 203.582031 L 141.726562 185.824219 L 144.738281 185.824219 L 144.738281 187.355469 C 146.046875 186.214844 147.785156 185.546875 149.601562 185.546875 C 153.8125 185.539062 157.152344 188.914062 157.152344 193.070312 Z M 157.152344 193.070312 "/>
<path style=" stroke:none;fill-rule:nonzero;fill:rgb(35.294118%,36.078431%,52.941176%);fill-opacity:1;" d="M 178.492188 203.582031 L 175.410156 203.582031 L 175.410156 201.34375 C 173.023438 203.625 169.257812 204.71875 165.445312 203.082031 C 162.621094 201.871094 160.519531 199.347656 159.960938 196.375 C 158.878906 190.632812 163.394531 185.539062 169.164062 185.539062 C 171.59375 185.539062 173.773438 186.5 175.367188 188.058594 L 175.367188 185.824219 L 178.488281 185.824219 L 178.488281 203.582031 Z M 174.78125 195.980469 C 175.640625 192.371094 172.847656 189.089844 169.203125 189.089844 C 166.046875 189.089844 163.503906 191.609375 163.503906 194.667969 C 163.503906 198.121094 166.605469 200.796875 170.214844 200.195312 C 172.441406 199.820312 174.269531 198.132812 174.78125 195.980469 Z M 174.78125 195.980469 "/>
<path style=" stroke:none;fill-rule:nonzero;fill:rgb(35.294118%,36.078431%,52.941176%);fill-opacity:1;" d="M 203.3125 203.585938 L 189.625 203.585938 L 189.625 177.148438 L 193.273438 177.148438 L 193.273438 199.976562 L 203.3125 199.976562 Z M 203.3125 203.585938 "/>
<path style=" stroke:none;fill-rule:nonzero;fill:rgb(35.294118%,36.078431%,52.941176%);fill-opacity:1;" d="M 222.742188 203.585938 L 219.640625 203.585938 L 219.640625 201.335938 C 218.03125 202.875 215.804688 203.875 213.363281 203.875 C 208.144531 203.875 203.941406 199.734375 203.941406 194.621094 C 203.941406 189.585938 208.136719 185.4375 213.363281 185.4375 C 215.808594 185.4375 218 186.402344 219.601562 187.976562 L 219.601562 185.726562 L 222.742188 185.726562 Z M 219.164062 194.617188 C 219.164062 191.546875 216.605469 189.007812 213.394531 189.007812 C 210.21875 189.007812 207.660156 191.546875 207.660156 194.617188 C 207.660156 197.757812 210.21875 200.261719 213.394531 200.261719 C 216.609375 200.261719 219.164062 197.761719 219.164062 194.617188 Z M 219.164062 194.617188 "/>
<path style=" stroke:none;fill-rule:nonzero;fill:rgb(35.294118%,36.078431%,52.941176%);fill-opacity:1;" d="M 244.605469 194.660156 C 244.605469 199.730469 240.371094 203.878906 235.1875 203.878906 C 232.738281 203.878906 230.476562 202.878906 228.871094 201.339844 L 228.871094 203.589844 L 225.804688 203.589844 L 225.804688 178.585938 L 229.417969 178.585938 L 229.417969 187.585938 C 230.917969 186.265625 232.960938 185.445312 235.1875 185.445312 C 240.371094 185.445312 244.605469 189.550781 244.605469 194.660156 Z M 240.878906 194.660156 C 240.878906 191.550781 238.285156 189.050781 235.148438 189.050781 C 232.007812 189.050781 229.414062 191.550781 229.414062 194.660156 C 229.414062 197.730469 232.007812 200.234375 235.148438 200.234375 C 238.285156 200.234375 240.878906 197.734375 240.878906 194.660156 Z M 240.878906 194.660156 "/>
<path style=" stroke:none;fill-rule:nonzero;fill:rgb(35.294118%,36.078431%,52.941176%);fill-opacity:1;" d="M 257.089844 187.007812 L 255.480469 189.617188 C 254.714844 189.152344 253.402344 188.4375 251.9375 188.4375 C 250.554688 188.4375 249.308594 189.117188 249.308594 190.226562 C 249.308594 191.4375 250.730469 191.90625 252.519531 192.546875 C 255.441406 193.546875 257.996094 195.472656 257.996094 198.402344 C 257.996094 201.367188 255.402344 203.871094 251.683594 203.871094 C 249.421875 203.871094 247.15625 202.976562 245.625 202.046875 L 247.050781 199.082031 C 248.109375 199.691406 250.082031 200.441406 251.578125 200.441406 C 253.40625 200.441406 254.210938 199.367188 254.210938 198.332031 C 254.210938 197.117188 253.078125 196.4375 250.558594 195.472656 C 248.730469 194.757812 245.773438 193.582031 245.773438 190.402344 C 245.773438 187.4375 248.367188 185.4375 251.832031 185.4375 C 253.878906 185.4375 255.554688 186.113281 257.089844 187.007812 Z M 257.089844 187.007812 "/>
<path style=" stroke:none;fill-rule:nonzero;fill:rgb(35.294118%,36.078431%,52.941176%);fill-opacity:1;" d="M 38.804688 186.914062 C 38.742188 186.21875 38.621094 185.417969 38.382812 184.535156 C 38.148438 183.65625 37.796875 182.691406 37.292969 181.683594 C 36.78125 180.691406 36.113281 179.648438 35.25 178.644531 C 34.914062 178.25 34.542969 177.863281 34.144531 177.480469 C 34.738281 175.167969 33.421875 173.167969 33.421875 173.167969 C 31.152344 173.03125 29.707031 173.859375 29.171875 174.242188 C 29.082031 174.203125 28.992188 174.164062 28.902344 174.128906 C 28.515625 173.972656 28.117188 173.832031 27.707031 173.707031 C 27.300781 173.582031 26.882812 173.46875 26.453125 173.363281 C 26.027344 173.265625 25.59375 173.183594 25.152344 173.117188 C 25.074219 173.101562 24.996094 173.09375 24.917969 173.085938 C 23.929688 169.980469 21.082031 168.6875 21.082031 168.6875 C 17.910156 170.65625 17.304688 173.414062 17.304688 173.414062 C 17.304688 173.414062 17.292969 173.476562 17.273438 173.578125 C 17.097656 173.628906 16.925781 173.675781 16.746094 173.730469 C 16.503906 173.800781 16.265625 173.890625 16.019531 173.972656 C 15.78125 174.066406 15.539062 174.15625 15.296875 174.257812 C 14.820312 174.457031 14.34375 174.683594 13.882812 174.9375 C 13.433594 175.1875 12.992188 175.457031 12.558594 175.75 C 12.496094 175.726562 12.449219 175.703125 12.449219 175.703125 C 8.058594 174.0625 4.15625 176.035156 4.15625 176.035156 C 3.800781 180.609375 5.910156 183.488281 6.328125 184.011719 C 6.222656 184.292969 6.128906 184.578125 6.035156 184.867188 C 5.710938 185.902344 5.46875 186.964844 5.320312 188.070312 C 5.296875 188.222656 5.277344 188.382812 5.261719 188.542969 C 1.203125 190.503906 0 194.527344 0 194.527344 C 3.386719 198.339844 7.335938 198.578125 7.335938 198.578125 C 7.339844 198.570312 7.34375 198.570312 7.34375 198.566406 C 7.847656 199.441406 8.429688 200.277344 9.082031 201.058594 C 9.351562 201.382812 9.644531 201.695312 9.9375 202 C 8.703125 205.453125 10.113281 208.332031 10.113281 208.332031 C 13.882812 208.472656 16.363281 206.71875 16.878906 206.316406 C 17.257812 206.441406 17.632812 206.550781 18.019531 206.648438 C 19.179688 206.941406 20.363281 207.109375 21.550781 207.164062 C 21.84375 207.175781 22.140625 207.183594 22.4375 207.183594 L 22.585938 207.183594 L 22.679688 207.175781 L 22.867188 207.171875 L 23.050781 207.164062 L 23.058594 207.167969 C 24.832031 209.648438 27.957031 210 27.957031 210 C 30.179688 207.707031 30.308594 205.433594 30.308594 204.941406 C 30.308594 204.941406 30.308594 204.925781 30.308594 204.910156 C 30.308594 204.871094 30.308594 204.839844 30.308594 204.839844 C 30.308594 204.804688 30.300781 204.773438 30.300781 204.734375 C 30.769531 204.414062 31.214844 204.070312 31.632812 203.703125 C 32.523438 202.914062 33.300781 202.015625 33.945312 201.050781 C 34.003906 200.964844 34.0625 200.871094 34.121094 200.777344 C 36.640625 200.917969 38.410156 199.253906 38.410156 199.253906 C 37.992188 196.6875 36.5 195.4375 36.1875 195.199219 C 36.1875 195.199219 36.175781 195.191406 36.15625 195.175781 C 36.140625 195.164062 36.128906 195.152344 36.128906 195.152344 C 36.113281 195.144531 36.09375 195.132812 36.074219 195.117188 C 36.089844 194.960938 36.101562 194.8125 36.113281 194.65625 C 36.128906 194.378906 36.140625 194.105469 36.140625 193.828125 L 36.140625 193.46875 C 36.140625 193.398438 36.140625 193.425781 36.140625 193.398438 L 36.128906 193.226562 L 36.117188 192.992188 C 36.113281 192.914062 36.109375 192.84375 36.097656 192.769531 C 36.09375 192.699219 36.085938 192.628906 36.074219 192.558594 L 36.046875 192.34375 L 36.015625 192.132812 C 35.976562 191.851562 35.917969 191.570312 35.851562 191.292969 C 35.589844 190.183594 35.148438 189.136719 34.566406 188.191406 C 33.984375 187.25 33.257812 186.414062 32.445312 185.710938 C 31.628906 185.007812 30.714844 184.441406 29.757812 184.019531 C 28.796875 183.597656 27.789062 183.324219 26.785156 183.203125 C 26.285156 183.140625 25.78125 183.113281 25.289062 183.117188 L 25.101562 183.121094 L 25.054688 183.121094 C 25.042969 183.121094 24.988281 183.121094 24.992188 183.121094 L 24.914062 183.125 L 24.734375 183.140625 C 24.664062 183.144531 24.59375 183.148438 24.527344 183.15625 C 24.273438 183.179688 24.019531 183.214844 23.773438 183.261719 C 22.78125 183.445312 21.839844 183.796875 21.007812 184.28125 C 20.183594 184.765625 19.460938 185.375 18.875 186.058594 C 18.289062 186.75 17.832031 187.507812 17.519531 188.296875 C 17.207031 189.082031 17.035156 189.894531 16.984375 190.6875 C 16.96875 190.882812 16.964844 191.082031 16.96875 191.273438 C 16.96875 191.324219 16.96875 191.371094 16.976562 191.421875 L 16.980469 191.582031 C 16.988281 191.671875 16.992188 191.769531 17.003906 191.863281 C 17.042969 192.265625 17.117188 192.648438 17.226562 193.019531 C 17.441406 193.757812 17.792969 194.429688 18.230469 195 C 18.660156 195.566406 19.179688 196.039062 19.726562 196.40625 C 20.277344 196.777344 20.863281 197.039062 21.445312 197.203125 C 22.027344 197.371094 22.601562 197.441406 23.148438 197.441406 C 23.214844 197.441406 23.285156 197.441406 23.351562 197.4375 C 23.390625 197.4375 23.425781 197.433594 23.460938 197.433594 C 23.496094 197.433594 23.535156 197.429688 23.570312 197.429688 C 23.628906 197.425781 23.683594 197.417969 23.742188 197.410156 C 23.757812 197.410156 23.773438 197.40625 23.792969 197.40625 L 23.847656 197.398438 C 23.882812 197.394531 23.914062 197.390625 23.953125 197.386719 C 24.023438 197.375 24.082031 197.363281 24.152344 197.351562 C 24.214844 197.335938 24.277344 197.328125 24.34375 197.308594 C 24.46875 197.28125 24.589844 197.246094 24.707031 197.207031 C 24.941406 197.132812 25.164062 197.039062 25.375 196.9375 C 25.582031 196.828125 25.773438 196.714844 25.949219 196.59375 C 26 196.558594 26.050781 196.523438 26.101562 196.484375 C 26.292969 196.335938 26.324219 196.066406 26.167969 195.882812 C 26.035156 195.722656 25.804688 195.683594 25.625 195.78125 C 25.578125 195.800781 25.53125 195.828125 25.488281 195.851562 C 25.328125 195.925781 25.164062 195.992188 24.988281 196.050781 C 24.8125 196.105469 24.628906 196.148438 24.4375 196.183594 C 24.34375 196.199219 24.246094 196.210938 24.148438 196.21875 C 24.097656 196.226562 24.046875 196.230469 24.003906 196.230469 C 23.953125 196.230469 23.902344 196.234375 23.855469 196.234375 C 23.8125 196.234375 23.761719 196.234375 23.714844 196.230469 C 23.65625 196.226562 23.597656 196.226562 23.539062 196.21875 C 23.539062 196.21875 23.507812 196.21875 23.535156 196.21875 L 23.515625 196.21875 L 23.476562 196.214844 C 23.449219 196.210938 23.421875 196.210938 23.398438 196.207031 C 23.34375 196.203125 23.292969 196.195312 23.238281 196.191406 C 22.8125 196.132812 22.378906 196.011719 21.96875 195.824219 C 21.550781 195.644531 21.148438 195.386719 20.789062 195.070312 C 20.433594 194.753906 20.117188 194.371094 19.871094 193.941406 C 19.628906 193.507812 19.457031 193.035156 19.375 192.53125 C 19.332031 192.28125 19.3125 192.019531 19.324219 191.765625 C 19.328125 191.695312 19.328125 191.628906 19.332031 191.558594 C 19.332031 191.574219 19.332031 191.550781 19.332031 191.542969 L 19.332031 191.519531 L 19.335938 191.464844 C 19.339844 191.429688 19.339844 191.398438 19.347656 191.363281 C 19.359375 191.226562 19.382812 191.085938 19.40625 190.949219 C 19.601562 189.855469 20.160156 188.789062 21.027344 187.980469 C 21.246094 187.78125 21.476562 187.589844 21.726562 187.425781 C 21.976562 187.253906 22.238281 187.109375 22.511719 186.984375 C 22.789062 186.859375 23.074219 186.757812 23.371094 186.683594 C 23.664062 186.605469 23.96875 186.554688 24.273438 186.527344 C 24.429688 186.511719 24.582031 186.507812 24.738281 186.507812 C 24.777344 186.507812 24.8125 186.507812 24.84375 186.507812 L 24.96875 186.511719 L 25.046875 186.515625 C 25.078125 186.515625 25.046875 186.515625 25.058594 186.515625 L 25.09375 186.515625 L 25.21875 186.527344 C 25.550781 186.554688 25.882812 186.597656 26.210938 186.671875 C 26.863281 186.816406 27.5 187.050781 28.09375 187.371094 C 29.28125 188.015625 30.292969 189.019531 30.910156 190.234375 C 31.222656 190.835938 31.441406 191.488281 31.550781 192.15625 C 31.578125 192.328125 31.597656 192.496094 31.609375 192.664062 L 31.621094 192.792969 L 31.625 192.921875 C 31.628906 192.96875 31.628906 193.007812 31.628906 193.050781 C 31.628906 193.09375 31.632812 193.140625 31.628906 193.171875 L 31.628906 193.28125 L 31.625 193.40625 C 31.621094 193.492188 31.613281 193.625 31.609375 193.710938 C 31.597656 193.894531 31.578125 194.078125 31.554688 194.265625 C 31.535156 194.445312 31.5 194.628906 31.46875 194.8125 C 31.433594 194.992188 31.390625 195.171875 31.347656 195.347656 C 31.257812 195.703125 31.136719 196.058594 30.996094 196.402344 C 30.71875 197.09375 30.347656 197.746094 29.902344 198.351562 C 29.007812 199.554688 27.785156 200.535156 26.394531 201.160156 C 25.699219 201.464844 24.964844 201.691406 24.214844 201.8125 C 23.839844 201.875 23.457031 201.910156 23.074219 201.921875 L 23.003906 201.929688 L 22.539062 201.929688 C 22.589844 201.929688 22.53125 201.929688 22.535156 201.929688 L 22.5 201.929688 C 22.292969 201.921875 22.089844 201.914062 21.886719 201.898438 C 21.066406 201.839844 20.261719 201.695312 19.480469 201.476562 C 18.699219 201.253906 17.941406 200.953125 17.226562 200.582031 C 15.789062 199.828125 14.507812 198.804688 13.503906 197.5625 C 13 196.945312 12.558594 196.28125 12.195312 195.585938 C 11.832031 194.886719 11.546875 194.152344 11.332031 193.40625 C 11.125 192.65625 10.992188 191.890625 10.941406 191.117188 L 10.933594 190.972656 L 10.929688 190.933594 L 10.929688 190.84375 L 10.925781 190.714844 L 10.925781 190.550781 L 10.917969 190.371094 L 10.917969 190.335938 C 10.917969 190.339844 10.917969 190.339844 10.917969 190.324219 L 10.917969 190.25 C 10.917969 190.15625 10.925781 190.066406 10.925781 189.964844 C 10.9375 189.585938 10.96875 189.191406 11.023438 188.800781 C 11.074219 188.410156 11.140625 188.015625 11.222656 187.625 C 11.304688 187.234375 11.40625 186.847656 11.515625 186.46875 C 11.738281 185.707031 12.015625 184.96875 12.347656 184.273438 C 13.003906 182.875 13.867188 181.644531 14.90625 180.660156 C 15.167969 180.410156 15.433594 180.175781 15.714844 179.957031 C 15.992188 179.738281 16.285156 179.535156 16.585938 179.34375 C 16.878906 179.152344 17.1875 178.972656 17.507812 178.8125 C 17.660156 178.730469 17.824219 178.660156 17.984375 178.582031 C 18.066406 178.546875 18.148438 178.511719 18.230469 178.476562 C 18.308594 178.441406 18.390625 178.40625 18.472656 178.375 C 18.800781 178.234375 19.140625 178.125 19.480469 178.019531 C 19.570312 177.992188 19.65625 177.96875 19.742188 177.941406 C 19.828125 177.917969 19.914062 177.898438 20 177.871094 C 20.171875 177.824219 20.351562 177.78125 20.523438 177.742188 C 20.609375 177.71875 20.699219 177.703125 20.785156 177.683594 C 20.871094 177.667969 20.964844 177.648438 21.050781 177.632812 C 21.140625 177.613281 21.226562 177.601562 21.316406 177.582031 L 21.449219 177.558594 L 21.582031 177.542969 C 21.671875 177.53125 21.757812 177.515625 21.847656 177.503906 C 21.949219 177.484375 22.046875 177.480469 22.148438 177.460938 C 22.230469 177.453125 22.367188 177.4375 22.449219 177.425781 C 22.511719 177.421875 22.574219 177.414062 22.640625 177.410156 L 22.765625 177.394531 L 22.828125 177.390625 L 22.902344 177.386719 C 23.003906 177.382812 23.101562 177.375 23.207031 177.371094 L 23.355469 177.359375 C 23.355469 177.359375 23.410156 177.359375 23.367188 177.359375 L 23.398438 177.359375 L 23.460938 177.355469 C 23.546875 177.351562 23.632812 177.347656 23.71875 177.34375 C 24.0625 177.332031 24.402344 177.332031 24.742188 177.34375 C 25.417969 177.371094 26.082031 177.441406 26.726562 177.558594 C 28.015625 177.796875 29.230469 178.199219 30.328125 178.734375 C 31.429688 179.257812 32.414062 179.90625 33.269531 180.609375 C 33.324219 180.65625 33.371094 180.699219 33.425781 180.742188 C 33.476562 180.789062 33.53125 180.832031 33.582031 180.875 C 33.6875 180.964844 33.785156 181.058594 33.886719 181.148438 C 33.984375 181.238281 34.082031 181.328125 34.175781 181.421875 C 34.273438 181.515625 34.367188 181.609375 34.453125 181.703125 C 34.816406 182.082031 35.152344 182.460938 35.453125 182.839844 C 36.0625 183.605469 36.546875 184.378906 36.933594 185.109375 C 36.957031 185.152344 36.984375 185.199219 37.007812 185.246094 C 37.03125 185.289062 37.050781 185.335938 37.074219 185.382812 C 37.121094 185.472656 37.164062 185.5625 37.207031 185.648438 C 37.246094 185.738281 37.292969 185.828125 37.328125 185.914062 C 37.371094 186 37.40625 186.085938 37.441406 186.171875 C 37.589844 186.511719 37.71875 186.835938 37.824219 187.144531 C 38 187.636719 38.132812 188.085938 38.234375 188.476562 C 38.273438 188.632812 38.425781 188.734375 38.585938 188.722656 C 38.753906 188.707031 38.886719 188.570312 38.890625 188.40625 C 38.863281 187.960938 38.855469 187.472656 38.804688 186.914062 Z M 38.804688 186.914062 "/>
</g>
</svg>
