<svg xmlns="http://www.w3.org/2000/svg" width="220.227" height="213.73" viewBox="0 0 220.227 213.73"><path d="M220.727,213.731H.5L73.815,57.346l44.163,32.466L175.581,0Zm-80.746-33.778h.471a21.028,21.028,0,0,0,14.619-5.876,19.166,19.166,0,0,0,6.284-14.454,17.546,17.546,0,0,0-6.057-13.873,18.426,18.426,0,0,0-12.568-5.412h-.361a6.567,6.567,0,0,0-1.83.251l11.626-17.282-9.262-6.465-4.383,6.465-11.2,17.109c-1.925,2.836-3.535,5.334-4.533,7.07a40.655,40.655,0,0,0-2.663,5.726,17.816,17.816,0,0,0-1.272,6.6,19.145,19.145,0,0,0,6.206,14.3,20.709,20.709,0,0,0,14.485,5.876Zm-49.237-18.6,12.836,18.154H117.3l-15.1-21.06,13.41-18.617-8.9-6.159-3.927,5.184-12.058,17V121.674l-12.019-9.8V179.5H90.727V161.336ZM140,168.618a8.837,8.837,0,1,1,0-17.675h.079a8.639,8.639,0,0,1,6.229,2.663,8.228,8.228,0,0,1,2.663,6.127A8.978,8.978,0,0,1,140,168.6Z" transform="translate(-0.5 -0.001)" fill="#7d64ff"/></svg>