<svg xmlns="http://www.w3.org/2000/svg" width="287.289" height="282.419" viewBox="0 0 287.289 282.419">
    <defs>
        <filter id="Path_2895" x="15.69" y="12.759" width="26.042" height="26.137" filterUnits="userSpaceOnUse">
            <feOffset dy="3"/>
            <feGaussianBlur stdDeviation="3" result="blur"/>
            <feFlood flood-opacity=".161"/>
            <feComposite operator="in" in2="blur"/>
            <feComposite in="SourceGraphic"/>
        </filter>
        <style>
            .cls-1{fill:#5a5c87}.cls-7{fill:#7d64ff}
        </style>
    </defs>
    <g id="xk6_browser_logo_-_Colour" data-name="xk6 browser logo - Colour" transform="translate(-163 -176)">
        <g id="Group_3531" data-name="Group 3531" transform="translate(0 -51.5)">
            <g id="Group_3527" data-name="Group 3527" transform="translate(-531.679 -1785.77)">
                <path id="Path_2886" data-name="Path 2886" class="cls-1" d="M694.679 2131.535h8.421v116.62c0 9.189 5.052 14.3 14.154 14.3q121.023.007 242.045 0c9.157 0 14.231-5.073 14.231-14.229.006-38.331 0 13.338 0-24.993v5.423h8.426v-6.076c0 38.611.007-12.778 0 25.834 0 13.574-8.908 22.457-22.492 22.458q-120.882.007-241.766 0c-12.108 0-19.376-5.522-22.646-17.185a4.151 4.151 0 0 0-.38-.749z" transform="translate(0 -42.038)"/>
                <path id="Path_2887" data-name="Path 2887" class="cls-1" d="M694.679 2012.77h201.829v8.348H703.329v29.771h62.184v8.434h-62.247v19.757h-8.587z" transform="translate(0 .5)"/>
                <path id="Path_2888" data-name="Path 2888" class="cls-1" d="M996.693 2051.115v-29.785h-67.085V2013h75.43v163.866h-8.059v-117.244h-209.3v-8.507z" transform="translate(-23.286 .271)"/>
                <g transform="translate(694.68 2013.27)" style="filter:url(#Path_2895)">
                    <path id="Path_2895-2" data-name="Path 2895" d="M735.658 2046.6h-8.042v-8.137h8.042z" transform="translate(-702.93 -2019.7)" style="fill:#f52b82"/>
                </g>
                <path id="Path_2896" data-name="Path 2896" d="M758.143 2046.668h-7.968v-8.168h7.968z" transform="translate(-13.896 -6.443)" style="fill:#f3800a"/>
                <path id="Path_2897" data-name="Path 2897" d="M780.763 2038.452v8.04h-8.145v-8.04z" transform="translate(-19.516 -6.431)" style="fill:#86bc53"/>
            </g>
        </g>
        <text id="xk6_browser" data-name="xk6 browser" transform="translate(166 447.419)" style="font-size:50px;font-family:TTNormsPro-Bold,TT Norms Pro;font-weight:700;fill:#7d64ff"><tspan x="0" y="0">xk6 </tspan><tspan class="cls-1" y="0">browser</tspan></text>
        <path id="xk6_browser_-_Outline" data-name="xk6 browser - Outline" d="M68 1.25a14.232 14.232 0 0 1-9.875-3.731A12.3 12.3 0 0 1 54.25-11.5a14.756 14.756 0 0 1 1.55-6.268v-.006a17.315 17.315 0 0 1 1.536-2.511L67.229-35.5h8.944L68.8-24.2a4.87 4.87 0 0 1 .7-.05 11.43 11.43 0 0 1 4.676 1.008 12.541 12.541 0 0 1 3.9 2.737 12.863 12.863 0 0 1 3.673 9 12.3 12.3 0 0 1-3.875 9.019A14.232 14.232 0 0 1 68 1.25zM56.7-17.329a13.752 13.752 0 0 0-1.45 5.829 11.311 11.311 0 0 0 3.563 8.293A13.238 13.238 0 0 0 68 .25a13.238 13.238 0 0 0 9.188-3.457A11.311 11.311 0 0 0 80.75-11.5a11.868 11.868 0 0 0-3.39-8.308 11.545 11.545 0 0 0-3.591-2.521 10.436 10.436 0 0 0-4.269-.921 4.521 4.521 0 0 0-.875.094c-.094.017-.192.035-.29.049l-1.654.331L74.327-34.5h-6.556l-9.618 14.8a16.328 16.328 0 0 0-1.453 2.371zM248.75 1a13.53 13.53 0 0 1-9.57-3.894 13.058 13.058 0 0 1-3.93-9.356 13.152 13.152 0 0 1 3.9-9.354 13.152 13.152 0 0 1 9.354-3.9 12.764 12.764 0 0 1 12.75 12.75 15.819 15.819 0 0 1-.112 1.807l-.04.388v.013l-.152 1.292h-17.462a5.407 5.407 0 0 0 1.684 2.066A6.734 6.734 0 0 0 249.25-6a8.116 8.116 0 0 0 4.577-1.269l.011-.007a5.966 5.966 0 0 0 1.525-1.291l.408-.5 4.137 5.614-.3.3a13.088 13.088 0 0 1-2.808 2.087h-.005A16.365 16.365 0 0 1 248.75 1zm-.25-25.5a12.159 12.159 0 0 0-8.646 3.6 12.159 12.159 0 0 0-3.6 8.646 12.065 12.065 0 0 0 3.632 8.644A12.536 12.536 0 0 0 248.75 0a15.376 15.376 0 0 0 7.55-1.936 12.723 12.723 0 0 0 2.282-1.622l-2.878-3.906a7.454 7.454 0 0 1-1.34 1.035A9.209 9.209 0 0 1 249.25-5c-3.46 0-6-1.674-6.974-4.592l-.219-.658h18l.047-.4c.012-.127.026-.259.041-.4a14.762 14.762 0 0 0 .107-1.7A11.763 11.763 0 0 0 248.5-24.5zM222.5 1a14.746 14.746 0 0 1-8.066-2.326 12.525 12.525 0 0 1-2.809-2.343l-.3-.342 4.683-4.975.364.4a7.488 7.488 0 0 0 1.642 1.311l.011.007A8.114 8.114 0 0 0 222.5-6c2.5 0 2.5-.941 2.5-1.25 0-.657-1.789-1.256-3.519-1.837a22.35 22.35 0 0 1-5.826-2.606 7.664 7.664 0 0 1-2.255-2.357 6.678 6.678 0 0 1-.9-3.45 7.242 7.242 0 0 1 2.712-5.635 11.627 11.627 0 0 1 7.538-2.365 14.2 14.2 0 0 1 7.353 1.969 12.167 12.167 0 0 1 2.5 1.928l.343.343-4.663 4.954-.363-.318a7.676 7.676 0 0 0-1.36-.937l-.011-.006a7.509 7.509 0 0 0-3.8-.933c-1.382 0-2 .5-2 1 0 .657 1.789 1.256 3.519 1.837a22.35 22.35 0 0 1 5.826 2.606 7.664 7.664 0 0 1 2.251 2.358 6.678 6.678 0 0 1 .9 3.45 7.439 7.439 0 0 1-2.776 5.836A12.407 12.407 0 0 1 222.5 1zm-9.817-5a11.745 11.745 0 0 0 2.28 1.821h.006A13.762 13.762 0 0 0 222.5 0a11.437 11.437 0 0 0 7.339-2.186 6.456 6.456 0 0 0 2.411-5.064 5.819 5.819 0 0 0-2.731-4.991 21.6 21.6 0 0 0-5.567-2.475c-2.347-.787-4.2-1.409-4.2-2.785a1.741 1.741 0 0 1 .809-1.442 3.81 3.81 0 0 1 2.191-.558 8.51 8.51 0 0 1 4.295 1.064 9.018 9.018 0 0 1 1.161.754l3.341-3.55a11.1 11.1 0 0 0-1.947-1.435 13.214 13.214 0 0 0-6.845-1.83 10.651 10.651 0 0 0-6.9 2.135A6.258 6.258 0 0 0 213.5-17.5a5.819 5.819 0 0 0 2.731 4.991 21.6 21.6 0 0 0 5.567 2.475c2.347.787 4.2 1.409 4.2 2.785a1.917 1.917 0 0 1-.879 1.666A4.719 4.719 0 0 1 222.5-5a9.112 9.112 0 0 1-5.019-1.428 9.222 9.222 0 0 1-1.472-1.1zM158 1a13.53 13.53 0 0 1-9.57-3.894 13.058 13.058 0 0 1-3.93-9.356 13.058 13.058 0 0 1 3.93-9.356A13.53 13.53 0 0 1 158-25.5a13.53 13.53 0 0 1 9.57 3.894 13.058 13.058 0 0 1 3.93 9.356 13.058 13.058 0 0 1-3.93 9.356A13.53 13.53 0 0 1 158 1zm0-25.5a12.536 12.536 0 0 0-8.868 3.606 12.065 12.065 0 0 0-3.632 8.644 12.065 12.065 0 0 0 3.632 8.644A12.536 12.536 0 0 0 158 0a12.536 12.536 0 0 0 8.868-3.606 12.065 12.065 0 0 0 3.632-8.644 12.065 12.065 0 0 0-3.632-8.644A12.536 12.536 0 0 0 158-24.5zM112 1a9.94 9.94 0 0 1-6.148-2.1l-.015-.011a10.808 10.808 0 0 1-1.337-1.252V.5h-7.75v-36h7.75v13.363a10.808 10.808 0 0 1 1.338-1.254l.015-.011a10.936 10.936 0 0 1 2.554-1.439A9.857 9.857 0 0 1 112-25.5a10.214 10.214 0 0 1 4.379.992 11.5 11.5 0 0 1 3.669 2.755 14.138 14.138 0 0 1 3.453 9.5 14.14 14.14 0 0 1-3.453 9.522 11.457 11.457 0 0 1-3.671 2.746A10.266 10.266 0 0 1 112 1zm-5.545-2.9A8.984 8.984 0 0 0 112 0a9.273 9.273 0 0 0 3.954-.89A10.463 10.463 0 0 0 119.3-3.4a13.144 13.144 0 0 0 3.2-8.853 13.142 13.142 0 0 0-3.2-8.835 10.511 10.511 0 0 0-3.35-2.518A9.222 9.222 0 0 0 112-24.5a8.984 8.984 0 0 0-5.545 1.9 8.445 8.445 0 0 0-1.789 1.881l-.148.223H103.5v-14h-5.75v34h5.75V-4h1.018l.148.223a8.445 8.445 0 0 0 1.789 1.877zM273 .5h-7.75V-25H273v2.885a12.168 12.168 0 0 1 1.275-1.265h.005A8.857 8.857 0 0 1 280-25.5h1v8.349l-1.126-.2-.232-.031a9.537 9.537 0 0 0-1.392-.113 4.977 4.977 0 0 0-3.725 1.588A6.386 6.386 0 0 0 273-11.5zm-6.75-1H272v-11a7.363 7.363 0 0 1 1.788-5.088 5.965 5.965 0 0 1 4.462-1.912 10.545 10.545 0 0 1 1.529.123l.221.03V-24.5a7.764 7.764 0 0 0-5.077 1.882 11.257 11.257 0 0 0-1.77 1.914l-.15.2h-1V-24h-5.75zm-63 1h-6.867L192-12.945 187.613.5h-6.867L171.795-25h8.324l4.266 13.746L188.888-25h6.225l4.5 13.746L203.882-25h8.324zm-6.142-1h5.433l8.254-23.5h-6.176l-4.5 14.5h-.981l-4.75-14.5h-4.775l-4.75 14.5h-.981l-4.5-14.5h-6.176l8.248 23.5h5.433l4.65-14.25h.926zM135.25.5h-7.75V-25h7.75v2.885a12.166 12.166 0 0 1 1.275-1.265h.005a8.857 8.857 0 0 1 5.72-2.116h1v8.349l-1.126-.2-.232-.031a9.537 9.537 0 0 0-1.392-.122 4.977 4.977 0 0 0-3.725 1.588 6.386 6.386 0 0 0-1.525 4.412zm-6.75-1h5.75v-11a7.363 7.363 0 0 1 1.788-5.088A5.965 5.965 0 0 1 140.5-18.5a10.545 10.545 0 0 1 1.529.123l.221.03V-24.5a7.763 7.763 0 0 0-5.077 1.882A11.258 11.258 0 0 0 135.4-20.7l-.15.2h-1V-24h-5.75zM53.934.5H44.98l-6.035-9.173-2.7 3.11V.5H28.5v-36h7.75v19.669L44.273-25H53.6l-9.471 10.792zm-8.414-1h6.546l-9.195-13.792L51.4-24h-6.673L35.25-13.169V-34.5H29.5v34h5.75v-5.437l3.8-4.39zM26.71.5h-8.983L12.75-7.232 7.773.5H-1.21l9.1-13L-.7-25h8.978l4.472 7.212L17.222-25H26.2l-8.591 12.5zm-8.438-1h6.518l-8.4-12L24.3-24h-6.522l-4.65 7.5h-.757L7.722-24H1.2l7.909 11.5L.71-.5h6.517l5.15-8h.746zM158-5.25a6.625 6.625 0 0 1-4.8-2 7.107 7.107 0 0 1-1.954-5 7.107 7.107 0 0 1 1.954-5 6.625 6.625 0 0 1 4.8-2 6.625 6.625 0 0 1 4.8 2 7.107 7.107 0 0 1 1.954 5 7.107 7.107 0 0 1-1.954 5 6.625 6.625 0 0 1-4.8 2zm0-13a5.75 5.75 0 0 0-5.75 6 5.75 5.75 0 0 0 5.75 6 5.75 5.75 0 0 0 5.75-6 5.75 5.75 0 0 0-5.75-6zm-48 13a6.625 6.625 0 0 1-4.8-2 7.107 7.107 0 0 1-1.954-5 7.107 7.107 0 0 1 1.954-5 6.625 6.625 0 0 1 4.8-2 6.625 6.625 0 0 1 4.8 2 7.107 7.107 0 0 1 1.954 5 7.107 7.107 0 0 1-1.954 5 6.625 6.625 0 0 1-4.8 2zm0-13a5.75 5.75 0 0 0-5.75 6 5.75 5.75 0 0 0 5.75 6 5.75 5.75 0 0 0 5.75-6 5.75 5.75 0 0 0-5.75-6zM68-5.5a5.741 5.741 0 0 1-6-6 5.741 5.741 0 0 1 6-6 5.741 5.741 0 0 1 6 6 5.741 5.741 0 0 1-6 6zm0-11a4.975 4.975 0 0 0-3.615 1.385A4.975 4.975 0 0 0 63-11.5a4.975 4.975 0 0 0 1.385 3.615A4.975 4.975 0 0 0 68-6.5a4.975 4.975 0 0 0 3.615-1.385A4.975 4.975 0 0 0 73-11.5a4.975 4.975 0 0 0-1.385-3.615A4.975 4.975 0 0 0 68-16.5zm186.444 2.25h-12.388l.219-.658a7.16 7.16 0 0 1 2.135-3.192 5.9 5.9 0 0 1 3.84-1.4 5.9 5.9 0 0 1 3.84 1.4 7.16 7.16 0 0 1 2.134 3.194zm-10.959-1h9.53a6.027 6.027 0 0 0-1.568-2.086 4.916 4.916 0 0 0-3.2-1.164 4.916 4.916 0 0 0-3.2 1.164 6.027 6.027 0 0 0-1.562 2.086z" transform="translate(166 447.419)" style="fill:transparent"/>
        <g id="Group_3524" data-name="Group 3524" transform="translate(-248.718 -89.288)">
            <path id="Path_2877" data-name="Path 2877" class="cls-7" d="M469.792 341.591c.013.049 36.694-.2 36.709-.2 1.512.025 3.195 1.7 4.386 2.886q47.515 47.484 94.907 95.091a28.472 28.472 0 0 1 2.177 3.007H469.944l49.469-48.695-50.7-50.05c.363-.678 1.103-2.08 1.079-2.039z"/>
            <path id="Path_2878" data-name="Path 2878" class="cls-7" d="m593.832 341.8-38.351 39.176-18.656-18.948c6.432-6.209 13.2-12.746 20.958-20.229z" transform="translate(12.907 .044)"/>
            <path id="Path_2879" data-name="Path 2879" class="cls-7" d="m601.173 351.6 2.393 12.192-18.582 17.169.557 1.307 20.439-2.768c.488 3.53.877 6.352 1.324 9.6l-18.931 3.369-3.739 21.906-8.269-9.375 1.858-16.845-10.275 9.579-5.264-8.089c12.007-11.865 25.016-24.726 38.489-38.045z" transform="translate(17.807 1.901)"/>
            <path id="Path_2880" data-name="Path 2880" class="cls-7" d="m632.211 387 1.677 9.471-12.937 2.743c.682 2.635 1.514 5.024 1.9 7.484 1.45 9.3-4.376 17.865-13.15 19.552-9.978 1.919-19.1-3.739-21.353-13.249-2.186-9.208 2.907-18.7 12.121-20.737 10.17-2.251 20.573-3.459 31.742-5.264zm-34.183 21.93a8.1 8.1 0 0 0 7.389 7.778c3.836.1 7.882-3.592 7.676-7.427-.244-4.546-2.9-7.263-7.448-7.631a7.174 7.174 0 0 0-7.616 7.282z" transform="translate(22.575 8.609)"/>
        </g>
    </g>
</svg>
