<svg width="1024" height="974" viewBox="0 0 1024 974" fill="none" xmlns="http://www.w3.org/2000/svg">
<path d="M1023.44 942.291C1026.79 958.149 1014.69 973.071 998.482 973.071H25.5392C6.85664 973.071 -5.48783 953.649 2.44323 936.734L319.975 259.491C326.801 244.934 345.227 240.244 358.181 249.765L520.715 369.244C532.581 377.968 549.347 374.858 557.297 362.463L782.224 11.7515C794.538 -7.45013 823.939 -2.06866 828.654 20.2499L1023.44 942.291ZM646.996 812.854H649.196C675.024 812.854 699.929 802.92 718.518 784.969C728.099 776.313 735.69 765.739 740.8 753.891C745.908 742.04 748.533 729.268 748.32 716.425C748.746 704.008 746.405 691.662 741.437 680.239C736.47 668.885 729.021 658.737 719.583 650.578C703.759 634.684 682.402 625.531 659.98 624.891H658.277C655.369 624.891 652.389 625.246 649.621 626.099L704.754 544.144L660.832 513.493L640.043 544.144L586.896 625.318C577.742 638.8 570.151 650.649 565.396 658.879C560.5 667.608 556.243 676.689 552.767 686.057C548.792 695.99 546.734 706.634 546.734 717.347C546.594 730.048 549.147 742.677 554.257 754.386C559.295 766.094 566.816 776.525 576.182 785.181C594.559 803.063 619.251 813.066 644.866 813.066L646.924 812.924L646.996 812.854ZM413.481 724.655L474.36 810.726H539.426L467.832 710.819L531.408 622.551L489.191 593.318L470.529 617.938L413.339 698.543V536.41L356.361 489.936V810.654H413.339V724.513H413.409L413.481 724.655ZM647.066 759.211C635.927 759.211 625.284 754.813 617.406 746.935C609.53 739.059 605.132 728.416 605.132 717.277C605.132 706.136 609.53 695.493 617.406 687.617C625.284 679.741 635.927 675.341 647.066 675.341H647.421C652.956 675.341 658.42 676.478 663.458 678.606C668.566 680.806 673.106 683.927 676.939 687.972C680.984 691.662 684.177 696.13 686.305 701.168C688.505 706.206 689.568 711.599 689.568 717.062C689.427 728.273 684.885 738.917 676.939 746.795C668.991 754.671 658.277 759.069 647.066 759.141V759.211Z" fill="#FF671D"/>
<path d="M647.07 759.147C635.932 759.147 625.288 754.747 617.412 746.871C609.536 738.996 605.136 728.352 605.136 717.213C605.136 706.073 609.536 695.429 617.412 687.553C625.288 679.677 635.932 675.279 647.07 675.279H647.425C652.961 675.279 658.424 676.412 663.462 678.542C668.57 680.742 673.113 683.863 676.943 687.908C680.988 691.598 684.181 696.067 686.309 701.105C688.509 706.143 689.574 711.536 689.574 717.001C689.432 728.212 684.891 738.853 676.943 746.731C668.997 754.607 658.281 759.005 647.07 759.077V759.147Z" fill="#FF671D"/>
</svg>